<svg xmlns="http://www.w3.org/2000/svg" xmlns:xlink="http://www.w3.org/1999/xlink" width="32" height="32" viewBox="0 0 32 32"><defs><style>.a{clip-path:url(#b);}.b{fill:#44c9f6;stroke:rgba(0,0,0,0);stroke-miterlimit:10;}</style><clipPath id="b"><rect width="32" height="32"/></clipPath></defs><g id="a" class="a"><path class="b" d="M-955.584,341.472l-2.942-1.7v-5.662l4.91,2.71,4.91-2.71v5.662l-2.942,1.7a3.932,3.932,0,0,1-1.968.528A3.932,3.932,0,0,1-955.584,341.472Zm12.565-20.839a.848.848,0,0,0-1.272-.734l-9.318,5.257-9.332-5.257a.848.848,0,0,0-1.272.734v15.857l-1.819-1.05A3.939,3.939,0,0,1-968,332.033V319.967a3.939,3.939,0,0,1,1.968-3.408l10.448-6.031a3.933,3.933,0,0,1,3.936,0l10.448,6.031a3.938,3.938,0,0,1,1.968,3.408v12.065a3.938,3.938,0,0,1-1.968,3.408l-1.819,1.05Z" transform="translate(970 -310)"/></g></svg>